<svg width="16" height="16" viewBox="0 0 16 16" fill="none" xmlns="http://www.w3.org/2000/svg">
<path fill-rule="evenodd" clip-rule="evenodd" d="M8 0C3.58 0 0 3.58 0 8C0 12.42 3.58 16 8 16C12.42 16 16 12.42 16 8C16 3.58 12.42 0 8 0ZM8 14C4.69 14 2 11.31 2 8C2 4.69 4.69 2 8 2C11.31 2 14 4.69 14 8C14 11.31 11.31 14 8 14ZM11 7H9V5C9 4.45 8.55 4 8 4C7.45 4 7 4.45 7 5V7H5C4.45 7 4 7.45 4 8C4 8.55 4.45 9 5 9H7V11C7 11.55 7.45 12 8 12C8.55 12 9 11.55 9 11V9H11C11.55 9 12 8.55 12 8C12 7.45 11.55 7 11 7Z" fill="#F5F8FA"/>
</svg>
